<?xml version="1.0" standalone="no"?><!DOCTYPE svg PUBLIC "-//W3C//DTD SVG 1.1//EN" "http://www.w3.org/Graphics/SVG/1.1/DTD/svg11.dtd"><svg t="1593849171300" class="icon" viewBox="0 0 1024 1024" version="1.1" xmlns="http://www.w3.org/2000/svg" p-id="8705" xmlns:xlink="http://www.w3.org/1999/xlink" width="200" height="200"><defs><style type="text/css"></style></defs><path d="M199.101217 483.57287m18.699131 0l588.377043 0q18.69913 0 18.699131 18.69913l0 10.395826q0 18.69913-18.699131 18.699131l-588.377043 0q-18.69913 0-18.699131-18.699131l0-10.395826q0-18.69913 18.699131-18.69913Z" fill="#666666" p-id="8706"></path><path d="M488.091826 801.636174V213.281391a18.69913 18.69913 0 0 1 18.699131-18.69913h10.395826a18.69913 18.69913 0 0 1 18.69913 18.69913v588.354783a18.69913 18.69913 0 0 1-18.69913 18.69913h-10.395826a18.69913 18.69913 0 0 1-18.699131-18.69913z" fill="#666666" p-id="8707"></path></svg>