<?xml version="1.0" standalone="no"?><!DOCTYPE svg PUBLIC "-//W3C//DTD SVG 1.1//EN" "http://www.w3.org/Graphics/SVG/1.1/DTD/svg11.dtd"><svg t="1594099954810" class="icon" viewBox="0 0 1024 1024" version="1.1" xmlns="http://www.w3.org/2000/svg" p-id="8782" xmlns:xlink="http://www.w3.org/1999/xlink" width="200" height="200"><defs><style type="text/css"></style></defs><path d="M319.488 542.72c-6.144 0-10.24-2.048-14.336-6.144-47.104-47.104-47.104-120.832 0-167.936 22.528-22.528 53.248-34.816 83.968-34.816s61.44 12.288 83.968 34.816c8.192 8.192 8.192 20.48 0 28.672-8.192 8.192-20.48 8.192-28.672 0-30.72-30.72-79.872-30.72-110.592 0-30.72 30.72-30.72 79.872 0 110.592 8.192 8.192 8.192 20.48 0 28.672-4.096 4.096-8.192 6.144-14.336 6.144z" fill="#15B7FF" p-id="8783"></path><path d="M788.48 290.816c-61.44-61.44-155.648-79.872-235.52-45.056-10.24 4.096-14.336 16.384-10.24 26.624s16.384 14.336 26.624 10.24c63.488-28.672 139.264-14.336 190.464 36.864 32.768 32.768 51.2 75.776 51.2 122.88s-18.432 90.112-51.2 122.88L634.88 704.512l-12.288 12.288-2.048 2.048c-4.096 2.048-8.192 6.144-12.288 8.192-24.576 16.384-51.2 24.576-77.824 26.624h-16.384c-47.104 0-90.112-18.432-122.88-51.2L266.24 563.2c-32.768-32.768-51.2-75.776-51.2-122.88s18.432-90.112 51.2-122.88c67.584-67.584 178.176-67.584 245.76 0l77.824 77.824c8.192 8.192 20.48 8.192 28.672 0s8.192-20.48 0-28.672l-77.824-77.824c-40.96-40.96-94.208-63.488-151.552-63.488s-110.592 22.528-151.552 63.488-63.488 94.208-63.488 151.552 22.528 110.592 61.44 151.552l124.928 139.264c6.144 6.144 10.24 10.24 16.384 14.336 6.144 4.096 12.288 8.192 16.384 12.288 6.144 4.096 12.288 8.192 18.432 10.24 30.72 16.384 65.536 24.576 100.352 24.576 55.296 0 110.592-20.48 151.552-63.488l124.928-139.264c40.96-40.96 63.488-94.208 63.488-151.552s-22.528-106.496-63.488-147.456z" fill="#666666" p-id="8784"></path></svg>