<?xml version="1.0" standalone="no"?><!DOCTYPE svg PUBLIC "-//W3C//DTD SVG 1.1//EN" "http://www.w3.org/Graphics/SVG/1.1/DTD/svg11.dtd"><svg t="1594099947017" class="icon" viewBox="0 0 1024 1024" version="1.1" xmlns="http://www.w3.org/2000/svg" p-id="8533" xmlns:xlink="http://www.w3.org/1999/xlink" width="200" height="200"><defs><style type="text/css"></style></defs><path d="M533.333333 853.333333H277.333333c-35.345067 0-64-28.654933-64-64v-298.666666c0-35.345067 28.654933-64 64-64V384c-58.909867 0-106.666667 47.761067-106.666666 106.666667v298.666666c0 58.909867 47.7568 106.666667 106.666666 106.666667h256v-42.666667z" fill="#666666" p-id="8534"></path><path d="M341.333333 170.666667c-23.5648 0-42.666667 19.101867-42.666666 42.666666v597.333334c0 23.5648 19.101867 42.666667 42.666666 42.666666h426.666667c23.5648 0 42.666667-19.101867 42.666667-42.666666V213.333333c0-23.5648-19.101867-42.666667-42.666667-42.666666H341.333333z m0-42.666667h426.666667c47.1296 0 85.333333 38.203733 85.333333 85.333333v597.333334c0 47.1296-38.203733 85.333333-85.333333 85.333333H341.333333c-47.1296 0-85.333333-38.203733-85.333333-85.333333V213.333333c0-47.1296 38.203733-85.333333 85.333333-85.333333z" fill="#666666" p-id="8535"></path><path d="M598.813867 529.536h65.565866a18.286933 18.286933 0 1 1 0 36.565333h-91.426133v36.573867h91.426133a18.286933 18.286933 0 1 1 0 36.5696h-91.426133v76.8a18.286933 18.286933 0 1 1-36.573867 0v-76.8h-91.426133a18.286933 18.286933 0 1 1 0-36.565333h91.426133v-36.573867h-91.426133a18.286933 18.286933 0 0 1 0-36.573867h64.465067l-33.250134-33.250133a18.286933 18.286933 0 1 1 25.856-25.856l52.091734 52.0832 52.087466-52.087467a18.286933 18.286933 0 1 1 25.856 25.856l-33.245866 33.2544z" fill="#666666" p-id="8536"></path><path d="M293.115733 178.167467l227.003734 145.5616a64 64 0 0 0 69.0944 0L816.213333 178.167467l23.031467 35.921066-227.003733 145.557334a106.666667 106.666667 0 0 1-115.157334 0L270.084267 214.088533l23.031466-35.921066z" fill="#666666" p-id="8537"></path></svg>