<?xml version="1.0" standalone="no"?><!DOCTYPE svg PUBLIC "-//W3C//DTD SVG 1.1//EN" "http://www.w3.org/Graphics/SVG/1.1/DTD/svg11.dtd"><svg t="1593855985251" class="icon" viewBox="0 0 1024 1024" version="1.1" xmlns="http://www.w3.org/2000/svg" p-id="29952" xmlns:xlink="http://www.w3.org/1999/xlink" width="48" height="48"><defs><style type="text/css"></style></defs><path d="M236.307692 262.564103l446.358975 0 0 26.25641-446.358975 0 0-26.25641Z" fill="#e6e6e6" p-id="29953"></path><path d="M236.307692 498.871795l446.358975 0 0 26.25641-446.358975 0 0-26.25641Z" fill="#e6e6e6" p-id="29954"></path><path d="M236.307692 735.179487l446.358975 0 0 26.25641-446.358975 0 0-26.25641Z" fill="#e6e6e6" p-id="29955"></path><path d="M722.051282 262.564103l65.641026 0 0 26.25641-65.641026 0 0-26.25641Z" fill="#e6e6e6" p-id="29956"></path><path d="M722.051282 498.871795l65.641026 0 0 26.25641-65.641026 0 0-26.25641Z" fill="#e6e6e6" p-id="29957"></path><path d="M722.051282 735.179487l65.641026 0 0 26.25641-65.641026 0 0-26.25641Z" fill="#e6e6e6" p-id="29958"></path></svg>