<?xml version="1.0" standalone="no"?><!DOCTYPE svg PUBLIC "-//W3C//DTD SVG 1.1//EN" "http://www.w3.org/Graphics/SVG/1.1/DTD/svg11.dtd"><svg t="1593849135569" class="icon" viewBox="0 0 1024 1024" version="1.1" xmlns="http://www.w3.org/2000/svg" p-id="7929" xmlns:xlink="http://www.w3.org/1999/xlink" width="200" height="200"><defs><style type="text/css"></style></defs><path d="M650.134897 878.357771H352.844575c-61.560117 0-112.609971-51.049853-112.609971-112.60997l-1.501466-261.255132c0-18.017595-7.507331-36.035191-21.020528-48.046921l-73.571848-70.568915c-10.510264-10.510264-15.014663-22.521994-16.516129-37.536657 0-13.513196 4.504399-27.026393 15.014663-37.536657l148.645161-151.648094c10.510264-10.510264 24.02346-16.516129 37.536657-16.516129h91.589443c19.519062 0 37.536657 10.510264 46.545455 28.527859l25.524926 51.049854c1.501466 3.002933 4.504399 4.504399 6.005866 4.504399 1.501466 0 4.504399 0 6.005865-4.504399l27.026393-51.049854c9.008798-18.017595 27.026393-28.527859 46.545454-28.527859H663.648094c13.513196 0 27.026393 6.005865 37.536657 15.014663l151.648094 153.14956c10.510264 10.510264 15.014663 22.521994 15.014662 37.536657 0 13.513196-6.005865 27.026393-15.014662 37.536657l-72.070382 72.070381c-12.01173 12.01173-19.519062 30.029326-19.519061 48.046921V765.747801c1.501466 61.560117-49.548387 112.609971-111.108505 112.60997zM330.322581 189.184751c-1.501466 0-4.504399 1.501466-6.005865 3.002932l-148.645162 151.648094c-1.501466 1.501466-1.501466 4.504399-1.501466 6.005865 0 1.501466 0 3.002933 3.002933 6.005865l73.571847 70.568915c21.020528 21.020528 34.533724 49.548387 34.533724 81.079179V765.747801c0 37.536657 30.029326 67.565982 67.565983 67.565982h297.290322c37.536657 0 67.565982-30.029326 67.565983-67.565982V505.994135c0-30.029326 12.01173-58.557185 33.032258-79.577713l72.070381-72.070381c1.501466-1.501466 1.501466-4.504399 1.501466-6.005865 0-1.501466 0-3.002933-1.501466-6.005865L671.155425 190.686217c-1.501466-1.501466-3.002933-1.501466-6.005865-1.501466h-85.583578c-3.002933 0-6.005865 1.501466-6.005865 4.504399l-27.026393 51.049853c-9.008798 18.017595-27.026393 28.527859-46.545454 28.527859s-37.536657-10.510264-46.545455-28.527859l-25.524926-51.049853c-1.501466-3.002933-4.504399-4.504399-6.005866-4.504399h-91.589442z" fill="#333333" p-id="7930"></path><path d="M499.98827 749.231672c-12.01173 0-22.521994-10.510264-22.521994-22.521995V355.847507c0-12.01173 10.510264-22.521994 22.521994-22.521994s22.521994 10.510264 22.521994 22.521994v372.363637c0 12.01173-10.510264 21.020528-22.521994 21.020528z" fill="#FFDA00" p-id="7931"></path></svg>