<?xml version="1.0" standalone="no"?><!DOCTYPE svg PUBLIC "-//W3C//DTD SVG 1.1//EN" "http://www.w3.org/Graphics/SVG/1.1/DTD/svg11.dtd"><svg t="1593849154400" class="icon" viewBox="0 0 1024 1024" version="1.1" xmlns="http://www.w3.org/2000/svg" p-id="8305" xmlns:xlink="http://www.w3.org/1999/xlink" width="200" height="200"><defs><style type="text/css"></style></defs><path d="M122.88 496.64c-7.68 0-15.872-3.072-21.504-9.728-10.24-11.776-8.704-29.696 3.072-39.936l394.24-340.992c10.752-9.216 26.112-9.216 36.864 0l384 334.848c11.776 10.24 12.8 28.16 2.56 39.936s-28.16 12.8-39.936 2.56L517.12 164.864 141.312 489.984c-5.12 4.608-11.776 6.656-18.432 6.656z" fill="#9B9B9B" p-id="8306"></path><path d="M822.784 918.528H201.216c-15.36 0-28.16-12.8-28.16-28.16v-374.784c0-15.36 12.8-28.16 28.16-28.16s28.16 12.8 28.16 28.16v346.624h564.736v-346.624c0-15.36 12.8-28.16 28.16-28.16s28.16 12.8 28.16 28.16v374.784c0.512 15.872-12.288 28.16-27.648 28.16z" fill="#9B9B9B" p-id="8307"></path><path d="M590.848 919.04c-14.336 0-25.6-11.264-25.6-25.6v-192.512c0-29.184-24.064-53.248-53.248-53.248s-53.248 24.064-53.248 53.248v190.976c0 14.336-11.264 25.6-25.6 25.6s-25.6-11.264-25.6-25.6v-190.976c0-57.856 47.104-104.448 104.448-104.448s104.448 47.104 104.448 104.448v192.512c0 13.824-11.264 25.6-25.6 25.6z" fill="#9B9B9B" p-id="8308"></path></svg>