<?xml version="1.0" standalone="no"?><!DOCTYPE svg PUBLIC "-//W3C//DTD SVG 1.1//EN" "http://www.w3.org/Graphics/SVG/1.1/DTD/svg11.dtd"><svg t="1594099950508" class="icon" viewBox="0 0 1024 1024" version="1.1" xmlns="http://www.w3.org/2000/svg" p-id="8658" xmlns:xlink="http://www.w3.org/1999/xlink" width="200" height="200"><defs><style type="text/css"></style></defs><path d="M624.64 847.872c-83.968 0-166.912-35.84-226.304-103.424L236.544 559.104C133.12 440.32 137.216 266.24 244.736 152.576c14.336-15.36 34.816-23.552 55.296-23.552 20.48 0 39.936 9.216 53.248 24.576l68.608 77.824c11.264 12.288 16.384 28.672 15.36 45.056-1.024 16.384-8.192 31.744-20.48 41.984l-82.944 72.704c-20.48 17.408-22.528 48.128-5.12 68.608l187.392 214.016c17.408 20.48 48.128 22.528 68.608 5.12l82.944-72.704c25.6-22.528 64.512-19.456 87.04 6.144l60.416 69.632c13.312 15.36 19.456 35.84 17.408 56.32-2.048 20.48-13.312 39.936-30.72 52.224C747.52 828.416 686.08 847.872 624.64 847.872zM299.008 150.528c-14.336 0-28.672 6.144-38.912 16.384-100.352 105.472-104.448 268.288-8.192 377.856l161.792 185.344c96.256 109.568 257.024 128 375.808 43.008 12.288-9.216 20.48-22.528 22.528-37.888 2.048-14.336-3.072-28.672-12.288-39.936l-60.416-69.632c-15.36-17.408-40.96-18.432-58.368-4.096l-82.944 72.704c-14.336 12.288-31.744 18.432-50.176 16.384-18.432-1.024-34.816-9.216-47.104-23.552L313.344 474.112c-24.576-28.672-22.528-71.68 6.144-97.28l82.944-72.704c8.192-7.168 13.312-17.408 14.336-28.672 1.024-11.264-3.072-21.504-10.24-29.696L337.92 167.936c-10.24-11.264-23.552-17.408-37.888-17.408h-1.024z" p-id="8659"></path><path d="M684.032 509.952c-93.184 0-167.936-75.776-167.936-167.936S591.872 174.08 684.032 174.08c93.184 0 167.936 75.776 167.936 167.936s-75.776 167.936-167.936 167.936z m0-316.416c-81.92 0-147.456 66.56-147.456 147.456s66.56 147.456 147.456 147.456c81.92 0 147.456-66.56 147.456-147.456s-66.56-147.456-147.456-147.456z" p-id="8660"></path><path d="M644.096 427.008c-6.144 0-10.24-4.096-10.24-10.24V265.216c0-6.144 4.096-10.24 10.24-10.24s10.24 4.096 10.24 10.24v151.552c0 6.144-5.12 10.24-10.24 10.24zM723.968 427.008c-6.144 0-10.24-4.096-10.24-10.24V265.216c0-6.144 4.096-10.24 10.24-10.24s10.24 4.096 10.24 10.24v151.552c0 6.144-5.12 10.24-10.24 10.24z" p-id="8661"></path></svg>