<?xml version="1.0" standalone="no"?><!DOCTYPE svg PUBLIC "-//W3C//DTD SVG 1.1//EN" "http://www.w3.org/Graphics/SVG/1.1/DTD/svg11.dtd"><svg t="1592442632321" class="icon" viewBox="0 0 1024 1024" version="1.1" xmlns="http://www.w3.org/2000/svg" p-id="8823" xmlns:xlink="http://www.w3.org/1999/xlink" width="200" height="200"><defs><style type="text/css"></style></defs><path d="M900.693333 853.333333H165.973333a37.973333 37.973333 0 0 1-37.973333-37.930666V208.597333a37.973333 37.973333 0 1 1 75.989333 0v568.874667H900.693333a37.973333 37.973333 0 1 1 0 75.861333m-88.661333-113.792h-76.032a37.973333 37.973333 0 0 1-37.973333-37.888v-265.514666c0-20.949333 17.024-37.930667 37.973333-37.930667h76.032a37.973333 37.973333 0 0 1 37.973333 37.973333v265.472a37.973333 37.973333 0 0 1-37.973333 37.888m-215.338667 0h-75.989333a37.973333 37.973333 0 0 1-37.973333-37.888V284.458667a37.973333 37.973333 0 0 1 37.973333-37.973334h75.989333a37.973333 37.973333 0 0 1 37.973334 37.973334v417.194666a37.973333 37.973333 0 0 1-37.973334 37.888m-215.338666 0h-75.946667a37.973333 37.973333 0 0 1-38.058667-37.888v-75.861333a37.973333 37.973333 0 0 1 38.016-37.973333h75.989334a37.973333 37.973333 0 0 1 38.016 37.973333v75.861333a37.973333 37.973333 0 0 1-37.973334 37.888" p-id="8824"></path></svg>