<?xml version="1.0" standalone="no"?><!DOCTYPE svg PUBLIC "-//W3C//DTD SVG 1.1//EN" "http://www.w3.org/Graphics/SVG/1.1/DTD/svg11.dtd"><svg t="1593850890962" class="icon" viewBox="0 0 1024 1024" version="1.1" xmlns="http://www.w3.org/2000/svg" p-id="15941" xmlns:xlink="http://www.w3.org/1999/xlink" width="200" height="200"><defs><style type="text/css"></style></defs><path d="M869.1 362.1c-19.5-46.2-47.5-87.6-83.1-123.2-35.6-35.6-77-63.5-123.2-83.1-47.8-20.2-98.5-30.5-150.9-30.5-52.3 0-103.1 10.2-150.9 30.5-46.2 19.5-87.6 47.5-123.2 83.1-35.6 35.6-63.5 77-83.1 123.2-20.2 47.8-30.5 98.5-30.5 150.9 0 52.3 10.2 103.1 30.5 150.9 19.5 46.2 47.5 87.6 83.1 123.2 35.6 35.6 77 63.5 123.2 83.1 47.8 20.2 98.5 30.5 150.9 30.5 52.3 0 103.1-10.2 150.9-30.5 46.2-19.5 87.6-47.5 123.2-83.1 35.6-35.6 63.5-77 83.1-123.2 20.2-47.8 30.5-98.5 30.5-150.9 0-52.3-10.3-103.1-30.5-150.9zM856.9 513c0 46.6-9.1 91.7-27.1 134.3-17.4 41.1-42.2 78-73.9 109.7s-68.6 56.6-109.7 73.9c-42.5 18-87.7 27.1-134.3 27.1-46.6 0-91.7-9.1-134.3-27.1-41.1-17.4-78-42.2-109.7-73.9-31.7-31.7-56.6-68.6-73.9-109.7-18-42.5-27.1-87.7-27.1-134.3 0-46.6 9.1-91.7 27.1-134.3 17.4-41.1 42.2-78 73.9-109.6 31.7-31.7 68.6-56.6 109.7-73.9 42.5-18 87.7-27.1 134.3-27.1 46.6 0 91.7 9.1 134.3 27.1 41.1 17.4 78 42.2 109.7 73.9 31.7 31.7 56.6 68.6 73.9 109.6 18 42.5 27.1 87.7 27.1 134.3z" fill="#020202" p-id="15942"></path><path d="M646.4 318.9H377.6c-33 0-59.7 26.7-59.7 59.7v248.8c0 22 17.8 39.8 39.8 39.8 0 22 17.8 39.8 39.8 39.8 19.4 0 35.5-13.9 39-32.2 21.3 1.3 45.4 2.3 70.5 2.3 28 0 55.8-1.2 80.4-2.8 3.3 18.6 19.5 32.7 39.1 32.7 22 0 39.8-17.8 39.8-39.8 22 0 39.8-17.8 39.8-39.8V378.6c0-33-26.8-59.7-59.7-59.7z m-251 291.3c-21.5 0-38.9-17.4-38.9-38.9s17.4-38.9 38.9-38.9 38.9 17.4 38.9 38.9-17.4 38.9-38.9 38.9z m233.2 0c-21.5 0-38.9-17.4-38.9-38.9s17.4-38.9 38.9-38.9 38.9 17.4 38.9 38.9-17.5 38.9-38.9 38.9z m38.9-180.7v38.7c0 11.8-11.3 18.6-24.5 21.4-34.5 7.3-56.2 13-133.8 13-71.5 0.4-100-7.5-128.2-13-13.3-2.6-24.5-9.6-24.5-21.4v-68.9c0-23.1 18-41.9 40.1-41.9h230.7c22.1 0 40.1 18.7 40.1 41.9v30.2z m0 0" fill="#020202" p-id="15943"></path></svg>